<?xml version="1.0" encoding="utf-8"?>
<!-- Generator: Adobe Illustrator 16.0.0, SVG Export Plug-In . SVG Version: 6.00 Build 0)  -->
<!DOCTYPE svg PUBLIC "-//W3C//DTD SVG 1.1//EN" "http://www.w3.org/Graphics/SVG/1.1/DTD/svg11.dtd">
<svg version="1.1" xmlns="http://www.w3.org/2000/svg" xmlns:xlink="http://www.w3.org/1999/xlink" x="0px" y="0px" width="500px"
	 height="500px" viewBox="0 0 500 500" enable-background="new 0 0 500 500" xml:space="preserve">
<g id="BACKGROUND">
	<rect id="XMLID_433_" fill="#3E96CC" width="500" height="500"/>
</g>
<g id="OBJECTS">
	<ellipse id="XMLID_4_" opacity="0.5" fill="#165C7F" cx="250" cy="352.265" rx="212.364" ry="16.373"/>
	<g id="XMLID_252_">
		<g id="XMLID_3_">
			<path id="XMLID_1474_" fill="#C7DBE5" d="M357.342,135.06l-12.036-3.555c-1.84-0.541-3.771,0.509-4.313,2.348l-1.542,5.228
				c-4.746-0.277-9.426,0.238-13.874,1.469l-2.607-4.789c-0.916-1.684-3.024-2.307-4.708-1.392l-11.023,6
				c-1.682,0.914-2.307,3.025-1.39,4.708l2.605,4.79c-3.452,3.066-6.428,6.714-8.772,10.852l-5.229-1.546
				c-1.839-0.544-3.768,0.508-4.311,2.345l-3.556,12.039c-0.544,1.84,0.507,3.768,2.348,4.31l5.228,1.543
				c-0.278,4.746,0.241,9.423,1.472,13.875l-4.791,2.605c-1.684,0.916-2.305,3.025-1.39,4.709l5.997,11.024
				c0.919,1.683,3.025,2.303,4.708,1.389l4.789-2.606c3.067,3.452,6.715,6.429,10.852,8.769l-1.545,5.232
				c-0.543,1.838,0.508,3.767,2.345,4.311l12.039,3.555c1.838,0.543,3.768-0.508,4.31-2.347l1.545-5.229
				c4.744,0.28,9.424-0.238,13.873-1.469l2.604,4.788c0.915,1.683,3.023,2.307,4.709,1.391l11.024-6
				c1.684-0.916,2.306-3.023,1.389-4.707l-2.606-4.787c3.454-3.068,6.429-6.715,8.772-10.85l5.228,1.544
				c1.842,0.543,3.769-0.508,4.314-2.344l3.552-12.037c0.542-1.839-0.507-3.769-2.346-4.314l-5.229-1.543
				c0.28-4.744-0.237-9.425-1.468-13.872l4.789-2.605c1.683-0.916,2.307-3.025,1.391-4.707l-5.998-11.024
				c-0.915-1.684-3.024-2.307-4.708-1.391l-4.791,2.605c-3.065-3.453-6.714-6.428-10.85-8.771l1.544-5.229
				C360.229,137.534,359.18,135.604,357.342,135.06z M341.938,165.063c9.294,2.744,14.6,12.5,11.857,21.793
				c-2.747,9.294-12.5,14.601-21.794,11.857c-9.291-2.744-14.601-12.5-11.856-21.795
				C322.889,167.626,332.646,162.32,341.938,165.063z"/>
			<path id="XMLID_1462_" fill="#A7BAD8" d="M344.146,157.586c-13.423-3.965-27.515,3.702-31.479,17.126
				c-3.965,13.421,3.702,27.515,17.124,31.478c13.425,3.965,27.518-3.704,31.48-17.125
				C365.235,175.641,357.568,161.549,344.146,157.586z M341.938,165.063c9.294,2.744,14.6,12.5,11.857,21.793
				c-2.747,9.294-12.5,14.601-21.794,11.857c-9.291-2.744-14.601-12.5-11.856-21.795
				C322.889,167.626,332.646,162.32,341.938,165.063z"/>
		</g>
		<g id="XMLID_5_">
			<path id="XMLID_441_" fill="#C7DBE5" d="M257.612,137.527l-7.066-2.087c-1.08-0.318-2.213,0.299-2.532,1.378l-0.905,3.069
				c-2.787-0.163-5.534,0.14-8.145,0.862l-1.531-2.811c-0.538-0.988-1.776-1.354-2.764-0.817l-6.472,3.522
				c-0.988,0.537-1.354,1.776-0.816,2.764l1.53,2.812c-2.027,1.8-3.773,3.942-5.15,6.371l-3.069-0.908
				c-1.08-0.319-2.212,0.299-2.531,1.377l-2.087,7.068c-0.32,1.08,0.297,2.212,1.378,2.53l3.069,0.906
				c-0.164,2.787,0.142,5.532,0.864,8.146l-2.813,1.53c-0.988,0.538-1.353,1.775-0.815,2.764l3.521,6.472
				c0.539,0.988,1.776,1.353,2.764,0.815l2.811-1.53c1.801,2.027,3.942,3.774,6.371,5.148l-0.907,3.072
				c-0.319,1.079,0.297,2.211,1.376,2.531l7.067,2.087c1.079,0.319,2.212-0.298,2.531-1.378l0.907-3.07
				c2.785,0.165,5.533-0.14,8.145-0.862l1.529,2.811c0.536,0.988,1.774,1.354,2.764,0.816l6.473-3.522
				c0.989-0.538,1.354-1.775,0.815-2.764l-1.53-2.811c2.028-1.801,3.774-3.942,5.15-6.37l3.069,0.906
				c1.081,0.319,2.212-0.298,2.532-1.376l2.085-7.067c0.318-1.08-0.297-2.212-1.377-2.533l-3.07-0.906
				c0.165-2.785-0.139-5.533-0.861-8.144l2.812-1.529c0.987-0.538,1.354-1.776,0.816-2.764l-3.521-6.472
				c-0.537-0.988-1.775-1.354-2.764-0.816l-2.813,1.529c-1.8-2.027-3.942-3.773-6.37-5.149l0.907-3.07
				C259.308,138.98,258.691,137.847,257.612,137.527z M248.569,155.142c5.457,1.611,8.572,7.339,6.961,12.795
				c-1.612,5.456-7.339,8.571-12.795,6.961c-5.455-1.611-8.572-7.339-6.961-12.796C237.386,156.647,243.114,153.531,248.569,155.142
				z"/>
			<path id="XMLID_437_" fill="#A7BAD8" d="M249.866,150.753c-7.88-2.329-16.153,2.173-18.48,10.054
				c-2.328,7.879,2.173,16.153,10.053,18.48c7.881,2.328,16.155-2.175,18.481-10.054
				C262.247,161.353,257.746,153.079,249.866,150.753z M248.569,155.142c5.457,1.611,8.572,7.339,6.961,12.795
				c-1.612,5.456-7.339,8.571-12.795,6.961c-5.455-1.611-8.572-7.339-6.961-12.796C237.386,156.647,243.114,153.531,248.569,155.142
				z"/>
		</g>
	</g>
	<g id="XMLID_2974_">
		<path id="XMLID_94_" fill="#2B2F3F" d="M346.963,194.745v106.506h-189.95V194.745c0-4.319,3.505-7.824,7.825-7.824h174.301
			C343.457,186.92,346.963,190.426,346.963,194.745z"/>
		<rect id="XMLID_66_" x="165.33" y="195.866" fill="#1D6C93" width="173.317" height="105.388"/>
		<polygon id="XMLID_67_" fill="#FFFFFF" points="276.833,338.992 227.144,338.992 232.595,320.682 271.94,320.682 		"/>
		<path id="XMLID_92_" fill="#FFFFFF" d="M346.963,301.251v11.606c0,4.319-3.506,7.824-7.824,7.824H164.837
			c-4.319,0-7.825-3.505-7.825-7.824v-11.606H346.963z"/>
		<polygon id="XMLID_64_" fill="#CECECE" points="232.595,320.682 230.829,326.613 273.525,326.613 271.94,320.682 		"/>
		<path id="XMLID_65_" fill="#CECECE" d="M283.576,348.147h-63.177c-2.528,0-4.578-2.05-4.578-4.578l0,0
			c0-2.528,2.049-4.577,4.578-4.577h63.177c2.528,0,4.577,2.049,4.577,4.577l0,0C288.153,346.098,286.104,348.147,283.576,348.147z"
			/>
		<g id="XMLID_1443_">
			<g id="XMLID_2812_">
				<polygon id="XMLID_2817_" fill="#AFAFAF" points="273.799,278.143 225.341,229.926 231.457,223.727 279.915,271.944 				"/>
				<path id="XMLID_2815_" fill="#D7D9DB" d="M216.321,221.171c-0.622-0.614-1.658-0.103-1.568,0.766
					c0.395,3.803,0.858,6.39,3.305,8.803c3.931,3.879,10.28,3.818,14.159-0.113c3.878-3.932,3.795-10.222-0.136-14.101
					c-2.228-2.198-4.519-2.216-8.334-2.518c-0.865-0.068-1.352,0.969-0.734,1.579l3.807,3.756c0.363,0.358,0.367,0.943,0.009,1.306
					l-4.794,4.859c-0.358,0.363-0.943,0.367-1.307,0.009L216.321,221.171z"/>
				<path id="XMLID_2814_" fill="#D7D9DB" d="M282.164,286.541c0.622,0.614,0.125,1.657-0.745,1.578
					c-3.809-0.344-6.4-0.771-8.847-3.186c-3.932-3.879-3.956-10.228-0.077-14.159c3.878-3.931,10.169-3.933,14.101-0.054
					c2.228,2.197,2.277,4.489,2.629,8.299c0.08,0.864-0.95,1.365-1.568,0.756l-3.807-3.756c-0.363-0.358-0.948-0.354-1.306,0.009
					l-4.795,4.859c-0.358,0.363-0.354,0.948,0.009,1.307L282.164,286.541z"/>
			</g>
			<g id="XMLID_1451_">
				<path id="XMLID_2811_" fill="#3E96CC" d="M269.646,243.641c-5.485,2.39-13.063,5.625-16.549,14.194l-8.48-8.501
					c8.578-3.466,11.832-11.035,14.234-16.515c2.398-5.484,17.785-16.51,20.8-18.128c0.176-0.093,0.357-0.171,0.538-0.231
					c2.884-1.017,6.022,1.861,6.022,1.861s2.87,3.146,1.847,6.028c-0.061,0.181-0.14,0.361-0.232,0.537
					C286.199,225.896,275.136,241.256,269.646,243.641z"/>
				<path id="XMLID_2809_" fill="#FFED6E" d="M288.058,222.349c-0.148-0.075-2.548-1.181-4.867,0.689
					c-2.394,1.925-3.861,0.148-3.861,0.148s-1.773-1.471,0.158-3.861c1.875-2.315,0.775-4.717,0.701-4.865
					c2.884-1.017,6.022,1.861,6.022,1.861S289.081,219.467,288.058,222.349z"/>
				<path id="XMLID_2799_" fill="#FFED6E" d="M253.101,257.84l-4.681,3.865c-0.918,0.758-2.262,0.692-3.102-0.15l-4.439-4.45
					c-0.841-0.843-0.902-2.188-0.141-3.104l3.879-4.667L253.101,257.84z"/>
				<path id="XMLID_2790_" fill="#145B7A" d="M264.679,242.615c-0.761,0.537-3.484-1.339-3.484-1.339s-1.868-2.728-1.33-3.487
					c5.052-7.085,13.556-14.726,15.221-15.072c1.659-0.341,3.511,1.2,3.511,1.2s1.542,1.86,1.196,3.519
					C279.438,229.095,271.78,237.586,264.679,242.615z"/>
				
					<ellipse id="XMLID_2781_" transform="matrix(0.7063 0.708 -0.708 0.7063 243.8869 -122.9043)" fill="#FFED6E" cx="270.05" cy="232.445" rx="2.294" ry="10.432"/>
				<polygon id="XMLID_2400_" fill="#CBD2D8" points="224.157,281.498 220.772,278.104 222.595,276.992 241.716,257.944 
					244.425,260.66 225.317,279.717 				"/>
				<polygon id="XMLID_2398_" fill="#CBD2D8" points="222.93,282.588 219.679,279.329 220.772,278.104 224.157,281.498 				"/>
				<polygon id="XMLID_2395_" fill="#3E96CC" points="219.702,285.326 216.978,282.596 219.679,279.329 222.93,282.588 				"/>
				<circle id="XMLID_2295_" fill="#145B7A" cx="281.316" cy="221.204" r="1.468"/>
			</g>
		</g>
		<polygon id="XMLID_2360_" opacity="0.2" fill="#FFFFFF" points="338.644,195.869 338.644,231.033 268.417,301.251 
			165.332,301.251 165.332,289.695 259.158,195.869 		"/>
		<polygon id="XMLID_442_" opacity="0.2" fill="#FFFFFF" points="235.442,195.869 165.332,265.979 165.332,224.064 193.526,195.869 
					"/>
		<path id="XMLID_6_" fill="#CECECE" d="M256.257,313.535c-0.137,0.015-0.275,0.02-0.418,0.015c-1.54-0.052-2.826-1.368-2.844-2.909
			c-0.015-1.153,0.64-2.149,1.596-2.641c0.562-0.288,0.545-1.082-0.03-1.342c-0.322-0.145-0.676-0.224-1.042-0.224h-0.524
			l0.52-2.681c0.047-0.24-0.285-0.45-0.711-0.45h-0.814h-0.815c-0.426,0-0.758,0.21-0.711,0.45l0.52,2.681h-0.524
			c-0.966,0-1.85,0.544-2.285,1.406l-1.013,2.008c-0.181,0.358-0.275,0.752-0.275,1.152v4.838c0,0.799,0.372,1.553,1.009,2.036
			l0.301,0.23c0.446,0.339,0.991,0.523,1.551,0.523h2.243h2.241c0.561,0,1.106-0.185,1.553-0.523l0.3-0.23
			c0.637-0.483,1.01-1.237,1.01-2.036v-1.576C257.092,313.816,256.7,313.487,256.257,313.535z"/>
	</g>
	<g id="XMLID_2_">
		<path id="XMLID_68_" fill="#464F60" d="M141.9,348.142H67.499c-4.094,0-7.413-3.318-7.413-7.413V157.514
			c0-4.094,3.319-7.413,7.413-7.413H141.9c4.094,0,7.413,3.319,7.413,7.413v183.215C149.313,344.823,145.994,348.142,141.9,348.142z
			"/>
		<path id="XMLID_410_" fill="#A2A9BC" d="M149.313,311.83v28.891c0,4.097-3.313,7.427-7.41,7.427H67.507
			c-4.097,0-7.411-3.33-7.411-7.427V311.83c0,9.092,7.361,16.453,16.453,16.453h56.311
			C141.952,328.283,149.313,320.922,149.313,311.83z"/>
		<path id="XMLID_69_" fill="#343847" d="M140.676,199.203H69.811c-2.592,0-4.692-2.101-4.692-4.692v-20.675
			c0-2.591,2.101-4.692,4.692-4.692h70.865c2.591,0,4.692,2.101,4.692,4.692v20.675
			C145.369,197.102,143.268,199.203,140.676,199.203z"/>
		<path id="XMLID_70_" fill="#464F60" d="M138.426,185.329H71.381c-1.731,0-3.135-1.403-3.135-3.134v-2.708
			c0-1.731,1.404-3.134,3.135-3.134h67.044c1.731,0,3.134,1.403,3.134,3.134v2.708C141.56,183.926,140.157,185.329,138.426,185.329z
			"/>
		<path id="XMLID_71_" fill="#CECECE" d="M80.353,182.473h-7.209c-1.052,0-1.904-0.853-1.904-1.904l0,0
			c0-1.052,0.853-1.904,1.904-1.904h7.209c1.052,0,1.904,0.853,1.904,1.904l0,0C82.257,181.62,81.404,182.473,80.353,182.473z"/>
		<circle id="XMLID_97_" fill="#4098CD" cx="124.766" cy="180.722" r="2.397"/>
		<circle id="XMLID_363_" fill="#4098CD" cx="134.048" cy="180.722" r="2.397"/>
		<path id="XMLID_100_" fill="#FFFFFF" d="M140.37,160.472h-20.199c-1.352,0-2.448-1.096-2.448-2.448l0,0
			c0-1.352,1.096-2.448,2.448-2.448h20.199c1.352,0,2.448,1.096,2.448,2.448l0,0C142.818,159.375,141.722,160.472,140.37,160.472z"
			/>
		<path id="XMLID_365_" fill="#343847" d="M141.764,249.121H67.499c-1.84,0-3.333-1.492-3.333-3.333v-6.257
			c0-1.84,1.492-3.332,3.333-3.332h74.266c1.84,0,3.333,1.492,3.333,3.332v6.257C145.097,247.629,143.604,249.121,141.764,249.121z"
			/>
		<path id="XMLID_366_" fill="#FFFFFF" d="M137.451,244.973h-8.758c-0.305,0-0.552-0.247-0.552-0.552v-3.861
			c0-0.305,0.247-0.551,0.552-0.551h8.758c0.305,0,0.552,0.247,0.552,0.551v3.861C138.002,244.726,137.755,244.973,137.451,244.973z
			"/>
		<path id="XMLID_367_" fill="#343847" d="M136.721,242.228h-7.298c-0.252,0-0.457-0.205-0.457-0.457v-0.557
			c0-0.252,0.205-0.457,0.457-0.457h7.298c0.252,0,0.457,0.205,0.457,0.457v0.557C137.178,242.023,136.973,242.228,136.721,242.228z
			"/>
		<path id="XMLID_370_" fill="#FFFFFF" d="M125.039,244.973h-8.758c-0.305,0-0.552-0.247-0.552-0.552v-3.861
			c0-0.305,0.247-0.551,0.552-0.551h8.758c0.305,0,0.552,0.247,0.552,0.551v3.861C125.591,244.726,125.344,244.973,125.039,244.973z
			"/>
		<path id="XMLID_369_" fill="#343847" d="M124.309,242.228h-7.298c-0.252,0-0.457-0.205-0.457-0.457v-0.557
			c0-0.252,0.205-0.457,0.457-0.457h7.298c0.252,0,0.457,0.205,0.457,0.457v0.557C124.766,242.023,124.562,242.228,124.309,242.228z
			"/>
		<g id="XMLID_368_">
			<path id="XMLID_1685_" fill="#FF5E4C" d="M103.611,244.95c-1.319,0-2.392-1.073-2.392-2.392c0-1.318,1.073-2.392,2.392-2.392
				s2.392,1.073,2.392,2.392C106.003,243.877,104.93,244.95,103.611,244.95z M103.611,241.005c-0.856,0-1.553,0.697-1.553,1.553
				c0,0.856,0.696,1.554,1.553,1.554c0.856,0,1.553-0.697,1.553-1.554C105.165,241.702,104.467,241.005,103.611,241.005z"/>
		</g>
		<g id="XMLID_372_">
			<path id="XMLID_1496_" fill="#46C596" d="M110.208,244.95c-1.318,0-2.392-1.073-2.392-2.392c0-1.318,1.073-2.392,2.392-2.392
				c1.319,0,2.392,1.073,2.392,2.392C112.6,243.877,111.527,244.95,110.208,244.95z M110.208,241.005
				c-0.856,0-1.553,0.697-1.553,1.553c0,0.856,0.697,1.554,1.553,1.554c0.856,0,1.553-0.697,1.553-1.554
				C111.761,241.702,111.064,241.005,110.208,241.005z"/>
		</g>
		<path id="XMLID_371_" fill="#FFFFFF" d="M101.364,323.591h-4.081c-1.07,0-1.938-0.868-1.938-1.938l0,0
			c0-1.07,0.868-1.938,1.938-1.938h4.081c1.07,0,1.938,0.868,1.938,1.938l0,0C103.302,322.723,102.434,323.591,101.364,323.591z"/>
		<path id="XMLID_374_" fill="#FFFFFF" d="M112.126,323.591h-4.081c-1.07,0-1.938-0.868-1.938-1.938l0,0
			c0-1.07,0.868-1.938,1.938-1.938h4.081c1.071,0,1.938,0.868,1.938,1.938l0,0C114.064,322.723,113.197,323.591,112.126,323.591z"/>
		<circle id="XMLID_373_" fill="#343847" cx="105.176" cy="279.215" r="13.466"/>
		<circle id="XMLID_375_" fill="#FFFFFF" cx="105.176" cy="279.215" r="8.856"/>
		<g id="XMLID_378_">
			<g id="XMLID_377_">
				<path id="XMLID_380_" fill="#343847" d="M105.175,285.081c-3.033,0-5.501-2.468-5.501-5.501c0-1.577,0.679-3.081,1.864-4.126
					c0.428-0.378,1.078-0.336,1.456,0.091c0.377,0.427,0.336,1.079-0.091,1.455c-0.741,0.654-1.165,1.594-1.165,2.58
					c0,1.896,1.542,3.438,3.438,3.438c1.896,0,3.438-1.543,3.438-3.438c0-0.985-0.424-1.924-1.163-2.577
					c-0.426-0.378-0.467-1.029-0.089-1.456s1.027-0.468,1.457-0.09c1.181,1.045,1.858,2.548,1.858,4.123
					C110.677,282.613,108.208,285.081,105.175,285.081z"/>
			</g>
			<g id="XMLID_376_">
				<path id="XMLID_401_" fill="#343847" d="M105.176,279.021L105.176,279.021c-0.57,0-1.031-0.462-1.031-1.031v-3.61
					c0-0.569,0.461-1.031,1.031-1.031l0,0c0.57,0,1.031,0.462,1.031,1.031v3.61C106.207,278.56,105.746,279.021,105.176,279.021z"/>
			</g>
		</g>
	</g>
	<g id="XMLID_381_">
		<g id="XMLID_382_">
			<path id="XMLID_2973_" fill="#46C596" d="M437.218,348.147H298.203c-2.006,0-3.632-1.626-3.632-3.632v-95.771
				c0-2.006,1.626-3.632,3.632-3.632h139.015c2.006,0,3.632,1.626,3.632,3.632v95.771
				C440.85,346.521,439.224,348.147,437.218,348.147z"/>
			<g id="XMLID_2946_">
				<rect id="XMLID_2970_" x="370.419" y="330.168" fill="#DFE82D" width="61.43" height="3.802"/>
				<g id="XMLID_2955_">
					<g>
						<g id="XMLID_223_">
							<rect x="393.064" y="330.39" fill="#E58507" width="2.294" height="1.376"/>
						</g>
						<g id="XMLID_222_">
							<rect x="393.064" y="332.372" fill="#E58507" width="2.294" height="1.376"/>
						</g>
						<rect id="XMLID_220_" x="393.852" y="331.577" fill="#E58507" width="0.721" height="1.04"/>
					</g>
				</g>
				<rect id="XMLID_2952_" x="366.104" y="330.39" fill="#FFFFFF" width="4.314" height="3.358"/>
				<rect id="XMLID_2949_" x="431.849" y="330.39" fill="#FFFFFF" width="4.314" height="3.358"/>
				<rect id="XMLID_2948_" x="371.468" y="331.447" fill="#E58507" width="20.578" height="1.3"/>
				<rect id="XMLID_2947_" x="396.306" y="331.447" fill="#E58507" width="34.5" height="1.3"/>
			</g>
			<g id="XMLID_702_">
				<rect id="XMLID_959_" x="370.419" y="324.626" fill="#DFE82D" width="61.43" height="3.802"/>
				<g id="XMLID_941_">
					<g>
						<g id="XMLID_211_">
							<rect x="393.064" y="324.848" fill="#E58507" width="2.294" height="1.376"/>
						</g>
						<g id="XMLID_210_">
							<rect x="393.064" y="326.83" fill="#E58507" width="2.294" height="1.376"/>
						</g>
						<rect id="XMLID_209_" x="393.852" y="326.035" fill="#E58507" width="0.721" height="1.04"/>
					</g>
				</g>
				<rect id="XMLID_936_" x="366.104" y="324.848" fill="#FFFFFF" width="4.314" height="3.358"/>
				<rect id="XMLID_713_" x="431.849" y="324.848" fill="#FFFFFF" width="4.314" height="3.358"/>
				<rect id="XMLID_708_" x="371.468" y="325.905" fill="#E58507" width="20.578" height="1.3"/>
				<rect id="XMLID_706_" x="396.306" y="325.905" fill="#E58507" width="34.5" height="1.3"/>
			</g>
			<g id="XMLID_962_">
				<rect id="XMLID_1014_" x="370.419" y="319.084" fill="#DFE82D" width="61.43" height="3.802"/>
				<g id="XMLID_971_">
					<g>
						<g id="XMLID_208_">
							<rect x="393.064" y="319.306" fill="#E58507" width="2.294" height="1.376"/>
						</g>
						<g id="XMLID_205_">
							<rect x="393.064" y="321.288" fill="#E58507" width="2.294" height="1.376"/>
						</g>
						<rect id="XMLID_204_" x="393.852" y="320.493" fill="#E58507" width="0.721" height="1.04"/>
					</g>
				</g>
				<rect id="XMLID_968_" x="366.104" y="319.306" fill="#FFFFFF" width="4.314" height="3.358"/>
				<rect id="XMLID_965_" x="431.849" y="319.306" fill="#FFFFFF" width="4.314" height="3.358"/>
				<rect id="XMLID_964_" x="371.468" y="320.363" fill="#E58507" width="20.578" height="1.3"/>
				<rect id="XMLID_963_" x="396.306" y="320.363" fill="#E58507" width="34.5" height="1.3"/>
			</g>
			<g id="XMLID_1030_">
				<rect id="XMLID_1054_" x="370.419" y="313.542" fill="#DFE82D" width="61.43" height="3.802"/>
				<g id="XMLID_1039_">
					<g>
						<g id="XMLID_203_">
							<rect x="393.064" y="313.764" fill="#E58507" width="2.294" height="1.376"/>
						</g>
						<g id="XMLID_202_">
							<rect x="393.064" y="315.746" fill="#E58507" width="2.294" height="1.376"/>
						</g>
						<rect id="XMLID_195_" x="393.852" y="314.951" fill="#E58507" width="0.721" height="1.041"/>
					</g>
				</g>
				<rect id="XMLID_1036_" x="366.104" y="313.764" fill="#FFFFFF" width="4.314" height="3.358"/>
				<rect id="XMLID_1033_" x="431.849" y="313.764" fill="#FFFFFF" width="4.314" height="3.358"/>
				<rect id="XMLID_1032_" x="371.468" y="314.821" fill="#E58507" width="20.578" height="1.3"/>
				<rect id="XMLID_1031_" x="396.306" y="314.821" fill="#E58507" width="34.5" height="1.3"/>
			</g>
			<g id="XMLID_2924_">
				<rect id="XMLID_2943_" x="374.875" y="339.365" fill="#DFE82D" width="26.521" height="5.942"/>
				<rect id="XMLID_2942_" x="376.164" y="340.059" fill="#D16666" width="1.714" height="1.792"/>
				<rect id="XMLID_2941_" x="376.164" y="342.822" fill="#D16666" width="1.714" height="1.791"/>
				<rect id="XMLID_2940_" x="378.961" y="340.059" fill="#D16666" width="1.714" height="1.792"/>
				<rect id="XMLID_2939_" x="378.961" y="342.822" fill="#D16666" width="1.714" height="1.791"/>
				<rect id="XMLID_2938_" x="381.757" y="340.059" fill="#D16666" width="1.714" height="1.792"/>
				<rect id="XMLID_2937_" x="381.757" y="342.822" fill="#D16666" width="1.714" height="1.791"/>
				<rect id="XMLID_2936_" x="384.553" y="340.059" fill="#D16666" width="1.714" height="1.792"/>
				<rect id="XMLID_2935_" x="384.553" y="342.822" fill="#D16666" width="1.714" height="1.791"/>
				<rect id="XMLID_2934_" x="387.35" y="340.059" fill="#D16666" width="1.714" height="1.792"/>
				<rect id="XMLID_2933_" x="387.35" y="342.822" fill="#D16666" width="1.714" height="1.791"/>
				<rect id="XMLID_2932_" x="390.146" y="340.059" fill="#D16666" width="1.714" height="1.792"/>
				<rect id="XMLID_2931_" x="390.146" y="342.822" fill="#D16666" width="1.714" height="1.791"/>
				<rect id="XMLID_2930_" x="392.941" y="340.059" fill="#D16666" width="1.714" height="1.792"/>
				<rect id="XMLID_2929_" x="392.941" y="342.822" fill="#D16666" width="1.714" height="1.791"/>
				<rect id="XMLID_2928_" x="395.738" y="340.059" fill="#D16666" width="1.714" height="1.792"/>
				<rect id="XMLID_2927_" x="395.738" y="342.822" fill="#D16666" width="1.714" height="1.791"/>
				<rect id="XMLID_2926_" x="398.534" y="340.059" fill="#D16666" width="1.714" height="1.792"/>
				<rect id="XMLID_2925_" x="398.534" y="342.822" fill="#D16666" width="1.714" height="1.791"/>
			</g>
			<g id="XMLID_9_">
				<rect id="XMLID_930_" x="406.229" y="339.365" fill="#DFE82D" width="26.521" height="5.942"/>
				<rect id="XMLID_895_" x="407.518" y="340.059" fill="#D16666" width="1.714" height="1.792"/>
				<rect id="XMLID_826_" x="407.518" y="342.822" fill="#D16666" width="1.714" height="1.791"/>
				<rect id="XMLID_786_" x="410.314" y="340.059" fill="#D16666" width="1.713" height="1.792"/>
				<rect id="XMLID_770_" x="410.314" y="342.822" fill="#D16666" width="1.713" height="1.791"/>
				<rect id="XMLID_769_" x="413.11" y="340.059" fill="#D16666" width="1.714" height="1.792"/>
				<rect id="XMLID_725_" x="413.11" y="342.822" fill="#D16666" width="1.714" height="1.791"/>
				<rect id="XMLID_717_" x="415.906" y="340.059" fill="#D16666" width="1.714" height="1.792"/>
				<rect id="XMLID_714_" x="415.906" y="342.822" fill="#D16666" width="1.714" height="1.791"/>
				<rect id="XMLID_694_" x="418.703" y="340.059" fill="#D16666" width="1.714" height="1.792"/>
				<rect id="XMLID_686_" x="418.703" y="342.822" fill="#D16666" width="1.714" height="1.791"/>
				<rect id="XMLID_685_" x="421.499" y="340.059" fill="#D16666" width="1.714" height="1.792"/>
				<rect id="XMLID_682_" x="421.499" y="342.822" fill="#D16666" width="1.714" height="1.791"/>
				<rect id="XMLID_435_" x="424.295" y="340.059" fill="#D16666" width="1.714" height="1.792"/>
				<rect id="XMLID_434_" x="424.295" y="342.822" fill="#D16666" width="1.714" height="1.791"/>
				<rect id="XMLID_11_" x="427.092" y="340.059" fill="#D16666" width="1.714" height="1.792"/>
				<rect id="XMLID_10_" x="427.092" y="342.822" fill="#D16666" width="1.714" height="1.791"/>
				<rect id="XMLID_12_" x="429.888" y="340.059" fill="#D16666" width="1.714" height="1.792"/>
				<rect id="XMLID_13_" x="429.888" y="342.822" fill="#D16666" width="1.714" height="1.791"/>
			</g>
			<g id="XMLID_2882_">
				<rect id="XMLID_2901_" x="298.291" y="276.582" fill="#5B6B69" width="3.335" height="14.883"/>
				<rect id="XMLID_2900_" x="300.231" y="277.306" fill="#3D3E43" width="1.005" height="0.962"/>
				<rect id="XMLID_2899_" x="298.681" y="277.306" fill="#3D3E43" width="1.006" height="0.962"/>
				<rect id="XMLID_2898_" x="300.231" y="278.875" fill="#3D3E43" width="1.005" height="0.961"/>
				<rect id="XMLID_2897_" x="298.681" y="278.875" fill="#3D3E43" width="1.006" height="0.961"/>
				<rect id="XMLID_2896_" x="300.231" y="280.443" fill="#3D3E43" width="1.005" height="0.962"/>
				<rect id="XMLID_2895_" x="298.681" y="280.443" fill="#3D3E43" width="1.006" height="0.962"/>
				<rect id="XMLID_2894_" x="300.231" y="282.013" fill="#3D3E43" width="1.005" height="0.962"/>
				<rect id="XMLID_2893_" x="298.681" y="282.013" fill="#3D3E43" width="1.006" height="0.962"/>
				<rect id="XMLID_2892_" x="300.231" y="283.582" fill="#3D3E43" width="1.005" height="0.962"/>
				<rect id="XMLID_2891_" x="298.681" y="283.582" fill="#3D3E43" width="1.006" height="0.962"/>
				<rect id="XMLID_2890_" x="300.231" y="285.151" fill="#3D3E43" width="1.005" height="0.962"/>
				<rect id="XMLID_2889_" x="298.681" y="285.151" fill="#3D3E43" width="1.006" height="0.962"/>
				<rect id="XMLID_2888_" x="300.231" y="286.721" fill="#3D3E43" width="1.005" height="0.962"/>
				<rect id="XMLID_2887_" x="298.681" y="286.721" fill="#3D3E43" width="1.006" height="0.962"/>
				<rect id="XMLID_2886_" x="300.231" y="288.29" fill="#3D3E43" width="1.005" height="0.961"/>
				<rect id="XMLID_2885_" x="298.681" y="288.29" fill="#3D3E43" width="1.006" height="0.961"/>
				<rect id="XMLID_2884_" x="300.231" y="289.858" fill="#3D3E43" width="1.005" height="0.962"/>
				<rect id="XMLID_2883_" x="298.681" y="289.858" fill="#3D3E43" width="1.006" height="0.962"/>
			</g>
			<circle id="XMLID_2879_" fill="#FFFFFF" cx="435.262" cy="278.889" r="1.95"/>
			<circle id="XMLID_2876_" fill="#FFFFFF" cx="397.164" cy="257.155" r="1.95"/>
			<circle id="XMLID_2873_" fill="#FFFFFF" cx="409.336" cy="257.155" r="1.95"/>
			<circle id="XMLID_2870_" fill="#FFFFFF" cx="418.048" cy="278.889" r="1.475"/>
			<circle id="XMLID_2867_" fill="#FFFFFF" cx="418.048" cy="283.355" r="1.475"/>
			<circle id="XMLID_2864_" fill="#FFFFFF" cx="418.048" cy="287.823" r="1.475"/>
			<circle id="XMLID_2861_" fill="#FFFFFF" cx="418.048" cy="292.291" r="1.475"/>
			<circle id="XMLID_2858_" fill="#FFFFFF" cx="435.262" cy="289.866" r="1.95"/>
			<g id="XMLID_2845_">
				<rect id="XMLID_2855_" x="427.42" y="270.275" fill="#DFE82D" width="4.02" height="30.475"/>
				<rect id="XMLID_2854_" x="428.168" y="270.937" fill="#E58507" width="2.523" height="2.064"/>
				<rect id="XMLID_2853_" x="428.168" y="274.322" fill="#E58507" width="2.523" height="2.064"/>
				<rect id="XMLID_2852_" x="428.168" y="277.709" fill="#E58507" width="2.523" height="2.064"/>
				<rect id="XMLID_2851_" x="428.168" y="281.095" fill="#E58507" width="2.523" height="2.064"/>
				<rect id="XMLID_2850_" x="428.168" y="284.48" fill="#E58507" width="2.523" height="2.064"/>
				<rect id="XMLID_2849_" x="428.168" y="287.867" fill="#E58507" width="2.523" height="2.064"/>
				<rect id="XMLID_2848_" x="428.168" y="291.253" fill="#E58507" width="2.523" height="2.064"/>
				<rect id="XMLID_2847_" x="428.168" y="294.639" fill="#E58507" width="2.523" height="2.064"/>
				<rect id="XMLID_2846_" x="428.168" y="298.025" fill="#E58507" width="2.523" height="2.064"/>
			</g>
			<g id="XMLID_2826_">
				<rect id="XMLID_2842_" x="394.785" y="260.96" fill="#DFE82D" width="16.996" height="4.02"/>
				<rect id="XMLID_2839_" x="395.445" y="261.708" fill="#D16666" width="2.065" height="2.523"/>
				<rect id="XMLID_2836_" x="398.832" y="261.708" fill="#D16666" width="2.064" height="2.523"/>
				<rect id="XMLID_2833_" x="402.218" y="261.708" fill="#D16666" width="2.064" height="2.523"/>
				<rect id="XMLID_2830_" x="405.604" y="261.708" fill="#D16666" width="2.064" height="2.523"/>
				<rect id="XMLID_2827_" x="408.99" y="261.708" fill="#D16666" width="2.064" height="2.523"/>
			</g>
			<g id="XMLID_2732_">
				<rect id="XMLID_2825_" x="421.406" y="291.264" fill="#5B6B69" width="3.845" height="6.254"/>
				<g id="XMLID_2797_">
					<g>
						<g id="XMLID_270_">
							<rect x="425.251" y="291.785" fill="#FFFFFF" width="1.017" height="0.558"/>
						</g>
						<g id="XMLID_269_">
							<rect x="425.251" y="292.948" fill="#FFFFFF" width="1.017" height="0.558"/>
						</g>
						<g id="XMLID_268_">
							<rect x="425.251" y="295.275" fill="#FFFFFF" width="1.017" height="0.557"/>
						</g>
						<g id="XMLID_267_">
							<rect x="425.251" y="294.112" fill="#FFFFFF" width="1.017" height="0.557"/>
						</g>
						<g id="XMLID_251_">
							<rect x="425.251" y="296.438" fill="#FFFFFF" width="1.017" height="0.558"/>
						</g>
					</g>
				</g>
				<g id="XMLID_2769_">
					<g>
						<g id="XMLID_310_">
							<rect x="420.391" y="291.785" fill="#FFFFFF" width="1.016" height="0.558"/>
						</g>
						<g id="XMLID_286_">
							<rect x="420.391" y="292.948" fill="#FFFFFF" width="1.016" height="0.558"/>
						</g>
						<g id="XMLID_253_">
							<rect x="420.391" y="295.275" fill="#FFFFFF" width="1.016" height="0.557"/>
						</g>
						<g id="XMLID_249_">
							<rect x="420.391" y="294.112" fill="#FFFFFF" width="1.016" height="0.557"/>
						</g>
						<g id="XMLID_247_">
							<rect x="420.391" y="296.438" fill="#FFFFFF" width="1.016" height="0.558"/>
						</g>
					</g>
				</g>
				<g id="XMLID_2751_">
					<g>
						<g id="XMLID_183_">
							<rect x="424.214" y="290.237" fill="#FFFFFF" width="0.557" height="1.016"/>
						</g>
						<g id="XMLID_179_">
							<rect x="421.887" y="290.237" fill="#FFFFFF" width="0.558" height="1.016"/>
						</g>
						<g id="XMLID_178_">
							<rect x="423.051" y="290.237" fill="#FFFFFF" width="0.557" height="1.016"/>
						</g>
					</g>
				</g>
				<g id="XMLID_2733_">
					<g>
						<g id="XMLID_177_">
							<rect x="424.214" y="297.518" fill="#FFFFFF" width="0.557" height="1.016"/>
						</g>
						<g id="XMLID_176_">
							<rect x="421.887" y="297.518" fill="#FFFFFF" width="0.558" height="1.016"/>
						</g>
						<g id="XMLID_172_">
							<rect x="423.051" y="297.518" fill="#FFFFFF" width="0.557" height="1.016"/>
						</g>
					</g>
				</g>
			</g>
			<g id="XMLID_2638_">
				<rect id="XMLID_2731_" x="356.25" y="327.003" fill="#5B6B69" width="3.845" height="6.254"/>
				<g id="XMLID_2703_">
					<g>
						<g id="XMLID_332_">
							<rect x="360.095" y="327.525" fill="#FFFFFF" width="1.016" height="0.557"/>
						</g>
						<g id="XMLID_331_">
							<rect x="360.095" y="328.688" fill="#FFFFFF" width="1.016" height="0.557"/>
						</g>
						<g id="XMLID_329_">
							<rect x="360.095" y="331.015" fill="#FFFFFF" width="1.016" height="0.558"/>
						</g>
						<g id="XMLID_328_">
							<rect x="360.095" y="329.852" fill="#FFFFFF" width="1.016" height="0.557"/>
						</g>
						<g id="XMLID_327_">
							<rect x="360.095" y="332.178" fill="#FFFFFF" width="1.016" height="0.558"/>
						</g>
					</g>
				</g>
				<g id="XMLID_2675_">
					<g>
						<g id="XMLID_343_">
							<rect x="355.234" y="327.525" fill="#FFFFFF" width="1.016" height="0.557"/>
						</g>
						<g id="XMLID_342_">
							<rect x="355.234" y="328.688" fill="#FFFFFF" width="1.016" height="0.557"/>
						</g>
						<g id="XMLID_341_">
							<rect x="355.234" y="331.015" fill="#FFFFFF" width="1.016" height="0.558"/>
						</g>
						<g id="XMLID_340_">
							<rect x="355.234" y="329.852" fill="#FFFFFF" width="1.016" height="0.557"/>
						</g>
						<g id="XMLID_338_">
							<rect x="355.234" y="332.178" fill="#FFFFFF" width="1.016" height="0.558"/>
						</g>
					</g>
				</g>
				<g id="XMLID_2657_">
					<g>
						<g id="XMLID_231_">
							<rect x="359.057" y="325.977" fill="#FFFFFF" width="0.558" height="1.016"/>
						</g>
						<g id="XMLID_229_">
							<rect x="356.73" y="325.977" fill="#FFFFFF" width="0.557" height="1.016"/>
						</g>
						<g id="XMLID_228_">
							<rect x="357.894" y="325.977" fill="#FFFFFF" width="0.558" height="1.016"/>
						</g>
					</g>
				</g>
				<g id="XMLID_2639_">
					<g>
						<g id="XMLID_239_">
							<rect x="359.057" y="333.257" fill="#FFFFFF" width="0.558" height="1.016"/>
						</g>
						<g id="XMLID_237_">
							<rect x="356.73" y="333.257" fill="#FFFFFF" width="0.557" height="1.016"/>
						</g>
						<g id="XMLID_235_">
							<rect x="357.894" y="333.257" fill="#FFFFFF" width="0.558" height="1.016"/>
						</g>
					</g>
				</g>
			</g>
			<circle id="XMLID_2635_" fill="#FFFFFF" cx="396.479" cy="274.232" r="1.475"/>
			<circle id="XMLID_2632_" fill="#FFFFFF" cx="400.945" cy="274.232" r="1.475"/>
			<circle id="XMLID_2629_" fill="#FFFFFF" cx="405.413" cy="274.232" r="1.475"/>
			<circle id="XMLID_2626_" fill="#FFFFFF" cx="409.88" cy="274.232" r="1.475"/>
			<polygon id="XMLID_2625_" fill="#ECD4B3" points="411.122,277.348 411.122,299.326 386.91,299.326 386.91,297.057 
				382.741,291.813 382.741,284.033 386.91,279.623 386.91,277.348 			"/>
			<rect id="XMLID_2624_" x="411.122" y="276.379" fill="#5B6B69" width="4.168" height="23.97"/>
			<g id="XMLID_2619_">
				<g>
					<path id="XMLID_143_" fill="#FFFFFF" d="M390.304,304.718h-2.232l-4.709-4.709v-2.151l-1.401-1.402
						c-0.205-0.205-0.205-0.537,0-0.741c0.204-0.205,0.536-0.205,0.741,0l1.709,1.709v2.152l4.095,4.095h1.263l2.119-2.928h21.388
						v-8.419l-1.699-1.699v-6.363l1.649-1.649v-6.904c0-0.289,0.234-0.524,0.524-0.524c0.289,0,0.524,0.235,0.524,0.524v7.339
						l-1.649,1.649v5.494l1.699,1.7v9.901h-21.901L390.304,304.718z"/>
				</g>
			</g>
			<g id="XMLID_2615_">
				<polygon id="XMLID_2618_" fill="#FFFFFF" points="307.022,343.505 307.022,337.737 307.76,337.737 307.76,336.82 
					309.234,336.82 309.964,337.549 309.964,344.472 307.793,344.472 307.796,343.504 				"/>
				<g id="XMLID_2616_">
					<polygon id="XMLID_2617_" fill="#4098CD" points="309.076,343.254 308.094,343.254 308.094,338.535 308.617,338.535 
						308.617,342.729 309.076,342.729 					"/>
				</g>
			</g>
			<g id="XMLID_2612_">
				<circle id="XMLID_2614_" fill="#FFFFFF" cx="320.249" cy="327.525" r="5.407"/>
				<circle id="XMLID_2613_" fill="#5B6B69" cx="320.249" cy="327.525" r="4.096"/>
			</g>
			<circle id="XMLID_2611_" fill="#FFFFFF" cx="310.307" cy="332.178" r="1.813"/>
			<g id="XMLID_2608_">
				<rect id="XMLID_2610_" x="298.602" y="313.98" fill="#FFFFFF" width="4.03" height="7.209"/>
				<rect id="XMLID_2609_" x="299.322" y="314.931" fill="#4098CD" width="2.589" height="5.309"/>
			</g>
			<g id="XMLID_2605_">
				<rect id="XMLID_2607_" x="298.602" y="302.904" fill="#FFFFFF" width="4.03" height="7.21"/>
				<rect id="XMLID_2606_" x="299.322" y="303.855" fill="#D16666" width="2.589" height="5.309"/>
			</g>
			<g id="XMLID_2602_">
				<rect id="XMLID_2604_" x="298.459" y="328.988" fill="#FFFFFF" width="3.714" height="13.282"/>
				<rect id="XMLID_2603_" x="299.596" y="330.124" fill="#4098CD" width="1.441" height="11.011"/>
			</g>
			<g id="XMLID_2599_">
				<rect id="XMLID_2601_" x="396.306" y="305.628" fill="#FFFFFF" width="13.282" height="3.714"/>
				<rect id="XMLID_2600_" x="397.442" y="306.765" fill="#4098CD" width="11.01" height="1.441"/>
			</g>
			<path id="XMLID_2598_" fill="#FFFFFF" d="M363.205,343.718h-7.183c-1.273,0-2.307-1.033-2.307-2.308l0,0
				c0-1.274,1.033-2.307,2.307-2.307h7.183c1.274,0,2.308,1.032,2.308,2.307l0,0C365.513,342.685,364.479,343.718,363.205,343.718z"
				/>
			<path id="XMLID_2597_" fill="#CECECE" d="M362.893,342.844h-6.558c-0.791,0-1.434-0.642-1.434-1.434l0,0
				c0-0.792,0.643-1.434,1.434-1.434h6.558c0.792,0,1.434,0.642,1.434,1.434l0,0C364.326,342.202,363.685,342.844,362.893,342.844z"
				/>
			<circle id="XMLID_2596_" fill="#5B6B69" cx="356.968" cy="341.41" r="0.647"/>
			<circle id="XMLID_2595_" fill="#5B6B69" cx="362.26" cy="341.41" r="0.647"/>
			<rect id="XMLID_2594_" x="359.314" y="279.082" fill="#ECD4B3" width="15.04" height="5.538"/>
			<rect id="XMLID_2593_" x="362.411" y="282.097" fill="#E0A177" width="8.847" height="2.032"/>
			<rect id="XMLID_2592_" x="360.379" y="279.465" fill="#E0A177" width="12.911" height="1.005"/>
			<polygon id="XMLID_2591_" fill="#5B6B69" points="407.48,279.956 406.508,278.82 404.104,278.82 402.117,279.956 
				389.818,279.956 389.818,296.635 402.117,296.635 404.104,297.771 406.508,297.771 407.48,296.635 407.841,296.635 
				407.841,279.956 			"/>
			<polygon id="XMLID_2588_" fill="#FFFFFF" points="403.624,280.981 403.624,280.306 402.117,280.306 402.117,279.606 
				398.59,279.606 398.59,280.306 396.295,280.306 396.295,280.981 392.152,280.981 392.152,285.994 392.776,285.994 
				392.776,290.813 392.152,290.813 392.152,295.829 396.295,295.829 396.295,296.507 398.59,296.507 398.59,297.206 
				402.117,297.206 402.117,296.507 403.624,296.507 403.624,295.829 407.194,295.829 407.194,280.981 			"/>
			<g id="XMLID_2577_">
				<rect id="XMLID_2585_" x="424.492" y="305" fill="#DFE82D" width="8.06" height="4.97"/>
				<g id="XMLID_2578_">
					<rect id="XMLID_2584_" x="425.467" y="305.58" fill="#D16666" width="1.434" height="1.499"/>
					<rect id="XMLID_2583_" x="425.467" y="307.891" fill="#D16666" width="1.434" height="1.499"/>
					<rect id="XMLID_2582_" x="427.805" y="305.58" fill="#D16666" width="1.434" height="1.499"/>
					<rect id="XMLID_2581_" x="427.805" y="307.891" fill="#D16666" width="1.434" height="1.499"/>
					<rect id="XMLID_2580_" x="430.144" y="305.58" fill="#D16666" width="1.434" height="1.499"/>
					<rect id="XMLID_2579_" x="430.144" y="307.891" fill="#D16666" width="1.434" height="1.499"/>
				</g>
			</g>
			<g id="XMLID_2572_">
				<rect id="XMLID_2574_" x="416.99" y="305.552" fill="#FFFFFF" width="6.554" height="3.866"/>
				<rect id="XMLID_2573_" x="417.973" y="306.348" fill="#4098CD" width="4.588" height="2.274"/>
			</g>
			<g id="XMLID_2561_">
				<rect id="XMLID_2569_" x="424.492" y="261.229" fill="#DFE82D" width="8.06" height="4.97"/>
				<g id="XMLID_2562_">
					<rect id="XMLID_2568_" x="425.467" y="261.81" fill="#D16666" width="1.434" height="1.499"/>
					<rect id="XMLID_2567_" x="425.467" y="264.121" fill="#D16666" width="1.434" height="1.498"/>
					<rect id="XMLID_2566_" x="427.805" y="261.81" fill="#D16666" width="1.434" height="1.499"/>
					<rect id="XMLID_2565_" x="427.805" y="264.121" fill="#D16666" width="1.434" height="1.498"/>
					<rect id="XMLID_2564_" x="430.144" y="261.81" fill="#D16666" width="1.434" height="1.499"/>
					<rect id="XMLID_2563_" x="430.144" y="264.121" fill="#D16666" width="1.434" height="1.498"/>
				</g>
			</g>
			<g id="XMLID_2556_">
				<rect id="XMLID_2558_" x="416.99" y="261.781" fill="#FFFFFF" width="6.554" height="3.866"/>
				<rect id="XMLID_2557_" x="417.973" y="262.577" fill="#4098CD" width="4.588" height="2.274"/>
			</g>
			<g id="XMLID_248_">
				<rect id="XMLID_264_" x="424.492" y="254.671" fill="#DFE82D" width="8.06" height="4.969"/>
				<g id="XMLID_250_">
					<rect id="XMLID_263_" x="425.467" y="255.251" fill="#D16666" width="1.434" height="1.498"/>
					<rect id="XMLID_262_" x="425.467" y="257.562" fill="#D16666" width="1.434" height="1.498"/>
					<rect id="XMLID_261_" x="427.805" y="255.251" fill="#D16666" width="1.434" height="1.498"/>
					<rect id="XMLID_260_" x="427.805" y="257.562" fill="#D16666" width="1.434" height="1.498"/>
					<rect id="XMLID_259_" x="430.144" y="255.251" fill="#D16666" width="1.434" height="1.498"/>
					<rect id="XMLID_254_" x="430.144" y="257.562" fill="#D16666" width="1.434" height="1.498"/>
				</g>
			</g>
			<g id="XMLID_14_">
				<rect id="XMLID_218_" x="416.99" y="255.222" fill="#FFFFFF" width="6.554" height="3.867"/>
				<rect id="XMLID_191_" x="417.973" y="256.018" fill="#4098CD" width="4.588" height="2.275"/>
			</g>
			<g id="XMLID_2537_">
				<rect id="XMLID_2539_" x="369.644" y="261.093" fill="#CECECE" width="9.206" height="6.521"/>
				<rect id="XMLID_2538_" x="369.644" y="261.093" fill="#5B6B69" width="9.206" height="2.147"/>
			</g>
			<g id="XMLID_2510_">
				<rect id="XMLID_2536_" x="351.981" y="265.532" fill="#4098CD" width="0.771" height="2.277"/>
				<rect id="XMLID_2535_" x="351.981" y="268.438" fill="#4098CD" width="0.771" height="2.277"/>
				<rect id="XMLID_2534_" x="351.981" y="271.344" fill="#4098CD" width="0.771" height="2.277"/>
				<rect id="XMLID_2533_" x="351.981" y="274.249" fill="#4098CD" width="0.771" height="2.277"/>
				<rect id="XMLID_2532_" x="351.981" y="277.154" fill="#4098CD" width="0.771" height="2.277"/>
				<rect id="XMLID_2531_" x="351.981" y="280.06" fill="#4098CD" width="0.771" height="2.277"/>
				<rect id="XMLID_2530_" x="351.981" y="282.965" fill="#4098CD" width="0.771" height="2.278"/>
				<rect id="XMLID_2529_" x="351.981" y="285.871" fill="#4098CD" width="0.771" height="2.277"/>
				<rect id="XMLID_2528_" x="351.981" y="288.776" fill="#4098CD" width="0.771" height="2.277"/>
				<rect id="XMLID_2527_" x="351.981" y="291.682" fill="#4098CD" width="0.771" height="2.277"/>
				<rect id="XMLID_2526_" x="351.981" y="294.587" fill="#4098CD" width="0.771" height="2.277"/>
				<rect id="XMLID_2525_" x="351.981" y="297.492" fill="#4098CD" width="0.771" height="2.277"/>
				<rect id="XMLID_2524_" x="351.981" y="300.398" fill="#4098CD" width="0.771" height="2.277"/>
				<rect id="XMLID_2523_" x="351.981" y="303.304" fill="#4098CD" width="0.771" height="2.277"/>
				<rect id="XMLID_2522_" x="351.981" y="306.209" fill="#4098CD" width="0.771" height="2.277"/>
				<g id="XMLID_2513_">
					<g>
						<path id="XMLID_242_" fill="#FFFFFF" d="M356.323,311.326v-2.84h0.295v-43.068h-3.866v43.068h0.295v2.84h-1.801v4.604h3.063
							v-0.804h0.782v0.804h3.064v-4.604H356.323z M355.092,311.326v1.846h-0.782v-1.846h-0.258v-2.84h1.267v2.84H355.092z"/>
					</g>
				</g>
				<polygon id="XMLID_2512_" fill="#4098CD" points="354.052,308.486 354.052,311.326 354.31,311.326 354.31,313.172 
					355.092,313.172 355.092,311.326 355.318,311.326 355.318,308.486 				"/>
				<rect id="XMLID_2511_" x="353.898" y="266.869" fill="#4098CD" width="1.573" height="40.166"/>
			</g>
			<g id="XMLID_2507_">
				<rect id="XMLID_2509_" x="369.644" y="269.212" fill="#CECECE" width="9.206" height="6.521"/>
				<rect id="XMLID_2508_" x="369.644" y="269.212" fill="#5B6B69" width="9.206" height="2.148"/>
			</g>
			<g id="XMLID_2504_">
				<rect id="XMLID_2506_" x="382.375" y="261.093" fill="#CECECE" width="9.206" height="6.521"/>
				<rect id="XMLID_2505_" x="382.375" y="261.093" fill="#5B6B69" width="9.206" height="2.147"/>
			</g>
			<g id="XMLID_2501_">
				<rect id="XMLID_2503_" x="382.375" y="269.212" fill="#CECECE" width="9.206" height="6.521"/>
				<rect id="XMLID_2502_" x="382.375" y="269.212" fill="#5B6B69" width="9.206" height="2.148"/>
			</g>
			<g id="XMLID_2493_">
				<rect id="XMLID_2500_" x="362.511" y="265.418" fill="#CECECE" width="3.867" height="11.25"/>
				<rect id="XMLID_2499_" x="361.74" y="265.532" fill="#5B6B69" width="0.771" height="2.277"/>
				<rect id="XMLID_2498_" x="361.74" y="268.438" fill="#5B6B69" width="0.771" height="2.277"/>
				<rect id="XMLID_2497_" x="361.74" y="271.344" fill="#5B6B69" width="0.771" height="2.277"/>
				<rect id="XMLID_2496_" x="361.74" y="274.249" fill="#5B6B69" width="0.771" height="2.277"/>
				<rect id="XMLID_2495_" x="363.657" y="266.869" fill="#5B6B69" width="1.573" height="8.348"/>
				<rect id="XMLID_2494_" x="363.657" y="271.854" fill="#5B6B69" width="1.573" height="0.629"/>
			</g>
			<g id="XMLID_2484_">
				<rect id="XMLID_2492_" x="343.5" y="265.418" fill="#FFFFFF" width="3.867" height="14.155"/>
				<rect id="XMLID_2491_" x="342.73" y="265.532" fill="#4098CD" width="0.77" height="2.277"/>
				<rect id="XMLID_2490_" x="342.73" y="268.438" fill="#4098CD" width="0.77" height="2.277"/>
				<rect id="XMLID_2489_" x="342.73" y="271.344" fill="#4098CD" width="0.77" height="2.277"/>
				<rect id="XMLID_2488_" x="342.73" y="274.249" fill="#4098CD" width="0.77" height="2.277"/>
				<rect id="XMLID_2487_" x="342.73" y="277.154" fill="#4098CD" width="0.77" height="2.277"/>
				<rect id="XMLID_2486_" x="344.647" y="266.869" fill="#4098CD" width="1.572" height="11.253"/>
				<rect id="XMLID_2485_" x="344.647" y="274.483" fill="#FFFFFF" width="1.572" height="0.722"/>
			</g>
			<g id="XMLID_2475_">
				<rect id="XMLID_2483_" x="333.832" y="265.418" fill="#FFFFFF" width="3.866" height="14.155"/>
				<rect id="XMLID_2482_" x="333.062" y="265.532" fill="#4098CD" width="0.771" height="2.277"/>
				<rect id="XMLID_2481_" x="333.062" y="268.438" fill="#4098CD" width="0.771" height="2.277"/>
				<rect id="XMLID_2480_" x="333.062" y="271.344" fill="#4098CD" width="0.771" height="2.277"/>
				<rect id="XMLID_2479_" x="333.062" y="274.249" fill="#4098CD" width="0.771" height="2.277"/>
				<rect id="XMLID_2478_" x="333.062" y="277.154" fill="#4098CD" width="0.771" height="2.277"/>
				<rect id="XMLID_2477_" x="334.979" y="266.869" fill="#4098CD" width="1.573" height="11.253"/>
				<rect id="XMLID_2476_" x="334.979" y="274.483" fill="#FFFFFF" width="1.573" height="0.722"/>
			</g>
			<g id="XMLID_2448_">
				<rect id="XMLID_2474_" x="322.992" y="265.532" fill="#4098CD" width="0.77" height="2.277"/>
				<rect id="XMLID_2473_" x="322.992" y="268.438" fill="#4098CD" width="0.77" height="2.277"/>
				<rect id="XMLID_2472_" x="322.992" y="271.344" fill="#4098CD" width="0.77" height="2.277"/>
				<rect id="XMLID_2471_" x="322.992" y="274.249" fill="#4098CD" width="0.77" height="2.277"/>
				<rect id="XMLID_2470_" x="322.992" y="277.154" fill="#4098CD" width="0.77" height="2.277"/>
				<rect id="XMLID_2469_" x="322.992" y="280.06" fill="#4098CD" width="0.77" height="2.277"/>
				<rect id="XMLID_2468_" x="322.992" y="282.965" fill="#4098CD" width="0.77" height="2.278"/>
				<rect id="XMLID_2467_" x="322.992" y="285.871" fill="#4098CD" width="0.77" height="2.277"/>
				<rect id="XMLID_2466_" x="322.992" y="288.776" fill="#4098CD" width="0.77" height="2.277"/>
				<rect id="XMLID_2465_" x="322.992" y="291.682" fill="#4098CD" width="0.77" height="2.277"/>
				<rect id="XMLID_2464_" x="322.992" y="294.587" fill="#4098CD" width="0.77" height="2.277"/>
				<rect id="XMLID_2463_" x="322.992" y="297.492" fill="#4098CD" width="0.77" height="2.277"/>
				<rect id="XMLID_2462_" x="322.992" y="300.398" fill="#4098CD" width="0.77" height="2.277"/>
				<rect id="XMLID_2461_" x="322.992" y="303.304" fill="#4098CD" width="0.77" height="2.277"/>
				<rect id="XMLID_2460_" x="322.992" y="306.209" fill="#4098CD" width="0.77" height="2.277"/>
				<g id="XMLID_2451_">
					<g>
						<path id="XMLID_255_" fill="#FFFFFF" d="M327.334,311.326v-2.84h0.295v-43.068h-3.867v43.068h0.295v2.84h-1.801v4.604h3.064
							v-0.804h0.782v0.804h3.063v-4.604H327.334z M326.103,311.326v1.846h-0.782v-1.846h-0.259v-2.84h1.268v2.84H326.103z"/>
					</g>
				</g>
				<polygon id="XMLID_2450_" fill="#4098CD" points="325.062,308.486 325.062,311.326 325.32,311.326 325.32,313.172 
					326.103,313.172 326.103,311.326 326.329,311.326 326.329,308.486 				"/>
				<rect id="XMLID_2449_" x="324.909" y="266.869" fill="#4098CD" width="1.572" height="40.166"/>
			</g>
			<g id="XMLID_2436_">
				<polygon id="XMLID_2445_" fill="#FFFFFF" points="318.626,262.925 318.626,303.856 313.771,303.856 313.771,262.925 
					315.313,262.925 315.313,264.565 317.084,264.565 317.084,262.925 				"/>
				<rect id="XMLID_2444_" x="314.203" y="263.386" fill="#CECECE" width="0.639" height="0.623"/>
				<rect id="XMLID_2443_" x="317.521" y="263.386" fill="#CECECE" width="0.64" height="0.623"/>
				<rect id="XMLID_2442_" x="314.203" y="294.838" fill="#CECECE" width="0.639" height="0.623"/>
				<rect id="XMLID_2441_" x="317.521" y="294.838" fill="#CECECE" width="0.64" height="0.623"/>
				<rect id="XMLID_2440_" x="315.412" y="265.418" fill="#CECECE" width="1.572" height="36.7"/>
				<rect id="XMLID_2437_" x="315.412" y="294.713" fill="#FFFFFF" width="1.572" height="0.874"/>
			</g>
			<g id="XMLID_2428_">
				<polygon id="XMLID_2435_" fill="#ECD4B3" points="309.058,262.925 309.058,303.856 304.202,303.856 304.202,262.925 
					305.743,262.925 305.743,264.565 307.516,264.565 307.516,262.925 				"/>
				<rect id="XMLID_2434_" x="304.635" y="263.386" fill="#E0A177" width="0.639" height="0.623"/>
				<rect id="XMLID_2433_" x="307.952" y="263.386" fill="#E0A177" width="0.64" height="0.623"/>
				<rect id="XMLID_2432_" x="304.635" y="294.838" fill="#E0A177" width="0.639" height="0.623"/>
				<rect id="XMLID_2431_" x="307.952" y="294.838" fill="#E0A177" width="0.64" height="0.623"/>
				<rect id="XMLID_2430_" x="305.844" y="265.418" fill="#E0A177" width="1.572" height="36.7"/>
				<rect id="XMLID_2429_" x="305.844" y="294.713" fill="#ECD4B3" width="1.572" height="0.874"/>
			</g>
			<rect id="XMLID_2427_" x="298.176" y="261.313" fill="#FFFFFF" width="4.652" height="8.684"/>
			<path id="XMLID_2426_" fill="#CECECE" d="M298.176,267.981L298.176,267.981v-4.652l0,0c-0.435,0-0.787,0.352-0.787,0.786v3.08
				C297.389,267.63,297.741,267.981,298.176,267.981z"/>
			<rect id="XMLID_2423_" x="299.084" y="248.05" fill="#FFFFFF" width="9.974" height="10.29"/>
			<g id="XMLID_2419_">
				<path id="XMLID_2420_" fill="#CECECE" d="M307.684,256.897h-7.227v-7.405h7.227V256.897z M302.029,255.325h4.082v-4.26h-4.082
					V255.325z"/>
			</g>
			<g id="XMLID_2411_">
				<rect id="XMLID_2416_" x="307.435" y="309.338" fill="#FFFFFF" width="9.974" height="10.29"/>
				<g id="XMLID_2412_">
					<path id="XMLID_2413_" fill="#CECECE" d="M316.035,318.186h-7.228v-7.405h7.228V318.186z M310.381,316.613h4.081v-4.26h-4.081
						V316.613z"/>
				</g>
			</g>
			<g id="XMLID_2404_">
				<rect id="XMLID_2410_" x="312.422" y="248.334" fill="#CECECE" width="12.408" height="9.721"/>
				<rect id="XMLID_2409_" x="312.422" y="248.334" fill="#5B6B69" width="1.66" height="1.66"/>
				<rect id="XMLID_2408_" x="323.169" y="248.334" fill="#5B6B69" width="1.661" height="1.66"/>
				<rect id="XMLID_2407_" x="312.422" y="256.396" fill="#5B6B69" width="1.66" height="1.66"/>
				<rect id="XMLID_2406_" x="323.169" y="256.396" fill="#5B6B69" width="1.661" height="1.66"/>
				<rect id="XMLID_2405_" x="314.082" y="249.995" fill="#5B6B69" width="9.087" height="6.401"/>
			</g>
			<rect id="XMLID_2403_" x="327.766" y="259.585" fill="#5B6B69" width="10.19" height="3.015"/>
			<rect id="XMLID_2402_" x="342.479" y="259.585" fill="#5B6B69" width="4.489" height="3.015"/>
			<g id="XMLID_2389_">
				<circle id="XMLID_2399_" fill="#FFFFFF" cx="331.916" cy="250.322" r="1.988"/>
				<circle id="XMLID_2396_" fill="#FFFFFF" cx="335.968" cy="250.322" r="1.988"/>
				<circle id="XMLID_2393_" fill="#FFFFFF" cx="331.916" cy="254.407" r="1.988"/>
				<circle id="XMLID_2390_" fill="#FFFFFF" cx="335.968" cy="254.407" r="1.988"/>
			</g>
			<g id="XMLID_2376_">
				<circle id="XMLID_2386_" fill="#FFFFFF" cx="336.436" cy="289.973" r="3.879"/>
				<circle id="XMLID_2383_" fill="#FFFFFF" cx="344.344" cy="289.973" r="3.879"/>
				<circle id="XMLID_2380_" fill="#FFFFFF" cx="336.436" cy="297.945" r="3.879"/>
				<circle id="XMLID_2377_" fill="#FFFFFF" cx="344.344" cy="297.945" r="3.879"/>
			</g>
			<rect id="XMLID_2375_" x="331.141" y="307.689" fill="#5B6B69" width="18.001" height="3.363"/>
			<rect id="XMLID_2374_" x="331.141" y="311.764" fill="#5B6B69" width="18.001" height="1.005"/>
			<rect id="XMLID_2373_" x="331.141" y="313.479" fill="#5B6B69" width="18.001" height="1.005"/>
			<rect id="XMLID_2372_" x="331.141" y="311.053" fill="#3D3E43" width="18.001" height="0.711"/>
			<rect id="XMLID_2371_" x="331.141" y="312.769" fill="#3D3E43" width="18.001" height="0.71"/>
			<rect id="XMLID_2370_" x="331.141" y="315.193" fill="#5B6B69" width="18.001" height="1.005"/>
			<rect id="XMLID_2369_" x="331.141" y="314.483" fill="#3D3E43" width="18.001" height="0.71"/>
			<rect id="XMLID_2368_" x="331.141" y="316.908" fill="#5B6B69" width="18.001" height="1.645"/>
			<rect id="XMLID_2367_" x="331.141" y="316.198" fill="#3D3E43" width="18.001" height="0.71"/>
			<rect id="XMLID_2366_" x="331.141" y="318.553" fill="#3D3E43" width="18.001" height="0.742"/>
			<rect id="XMLID_2365_" x="331.141" y="319.295" fill="#5B6B69" width="18.001" height="1.645"/>
			<rect id="XMLID_2364_" x="331.141" y="320.939" fill="#3D3E43" width="18.001" height="0.742"/>
			<rect id="XMLID_2363_" x="331.141" y="321.682" fill="#5B6B69" width="18.001" height="6.28"/>
			<rect id="XMLID_2362_" x="371.205" y="243.55" fill="#5B6B69" width="6.336" height="10.267"/>
			<rect id="XMLID_2361_" x="372.822" y="242.239" fill="#3D3E43" width="2.981" height="1.311"/>
			<rect id="XMLID_2358_" x="378.633" y="243.55" fill="#FFFFFF" width="8.345" height="9.645"/>
			<rect id="XMLID_2357_" x="378.633" y="253.233" fill="#ECD4B3" width="8.345" height="3.162"/>
			<rect id="XMLID_2354_" x="388.07" y="244.817" fill="#FFFFFF" width="6.379" height="8.17"/>
			<g id="XMLID_2352_">
				<polygon id="XMLID_2353_" fill="#CECECE" points="390.725,248.378 390.091,247.744 390.091,245.637 389.665,245.637 
					389.665,247.744 389.031,248.378 388.66,248.007 389.141,247.527 389.141,245.112 390.615,245.112 390.615,247.527 
					391.096,248.007 				"/>
			</g>
			<rect id="XMLID_2351_" x="389.518" y="244.225" fill="#5B6B69" width="0.721" height="1.15"/>
			<g id="XMLID_2349_">
				<polygon id="XMLID_2350_" fill="#CECECE" points="393.524,248.378 392.891,247.744 392.891,245.637 392.464,245.637 
					392.464,247.744 391.83,248.378 391.46,248.007 391.94,247.527 391.94,245.112 393.415,245.112 393.415,247.527 
					393.895,248.007 				"/>
			</g>
			<rect id="XMLID_2348_" x="392.316" y="244.225" fill="#5B6B69" width="0.722" height="1.15"/>
			<polygon id="XMLID_2347_" fill="#CECECE" points="411.048,244.8 405.132,244.8 399.215,244.8 396.371,244.8 396.371,247.177 
				399.215,247.177 399.215,251.24 405.132,251.24 411.048,251.24 411.048,247.177 413.892,247.177 413.892,244.8 			"/>
			<path id="XMLID_2344_" fill="#FFFFFF" d="M412.767,242.25h-0.991c-0.357,0-0.647-0.29-0.647-0.647v-0.106
				c0-0.244-0.198-0.442-0.442-0.442h-5.554h-5.555c-0.244,0-0.442,0.198-0.442,0.442v0.106c0,0.358-0.289,0.647-0.646,0.647h-0.992
				c-0.244,0-0.441,0.198-0.441,0.442v2.125l8.077-0.018l8.077,0.018v-2.125C413.209,242.448,413.011,242.25,412.767,242.25z"/>
			<path id="XMLID_2341_" fill="#FFFFFF" d="M429.504,242.25h-0.823c-0.297,0-0.537-0.29-0.537-0.647v-0.106
				c0-0.244-0.165-0.442-0.367-0.442h-4.614h-4.613c-0.203,0-0.367,0.198-0.367,0.442v0.106c0,0.358-0.241,0.647-0.538,0.647h-0.823
				c-0.203,0-0.367,0.198-0.367,0.442v2.125l6.709-0.018l6.71,0.018v-2.125C429.872,242.448,429.707,242.25,429.504,242.25z"/>
			<polygon id="XMLID_2340_" fill="#CECECE" points="430.462,244.817 416.011,244.817 416.011,246.396 419.144,246.396 
				419.144,248.45 427.329,248.45 427.329,246.396 430.462,246.396 			"/>
			<rect id="XMLID_2337_" x="432.81" y="243.463" fill="#FFFFFF" width="6.729" height="8.869"/>
			<rect id="XMLID_2336_" x="432.81" y="251.021" fill="#ECD4B3" width="6.729" height="1.311"/>
			<rect id="XMLID_2335_" x="360.042" y="302.151" fill="#CECECE" width="16.843" height="6.335"/>
			<rect id="XMLID_2334_" x="361.255" y="300.775" fill="#5B6B69" width="4.62" height="1.376"/>
			<rect id="XMLID_2333_" x="367.088" y="300.775" fill="#5B6B69" width="8.814" height="1.376"/>
			<rect id="XMLID_2332_" x="335.117" y="334.341" fill="#CECECE" width="15.226" height="6.335"/>
			<rect id="XMLID_2331_" x="336.213" y="332.965" fill="#5B6B69" width="4.177" height="1.376"/>
			<rect id="XMLID_2330_" x="341.486" y="332.965" fill="#5B6B69" width="7.968" height="1.376"/>
			<g id="XMLID_2245_">
				<polygon id="XMLID_2248_" fill="#FFFFFF" points="311.61,343.505 311.61,337.737 312.348,337.737 312.348,336.82 
					313.822,336.82 314.552,337.549 314.552,344.472 312.381,344.472 312.384,343.504 				"/>
				<g id="XMLID_2246_">
					<polygon id="XMLID_2247_" fill="#4098CD" points="313.664,343.254 312.681,343.254 312.681,338.535 313.205,338.535 
						313.205,342.729 313.664,342.729 					"/>
				</g>
			</g>
			<g id="XMLID_2241_">
				<polygon id="XMLID_2244_" fill="#FFFFFF" points="316.198,343.505 316.198,337.737 316.936,337.737 316.936,336.82 
					318.41,336.82 319.139,337.549 319.139,344.472 316.968,344.472 316.972,343.504 				"/>
				<g id="XMLID_2242_">
					<polygon id="XMLID_2243_" fill="#4098CD" points="318.252,343.254 317.269,343.254 317.269,338.535 317.793,338.535 
						317.793,342.729 318.252,342.729 					"/>
				</g>
			</g>
			<g id="XMLID_2237_">
				<polygon id="XMLID_2240_" fill="#FFFFFF" points="320.785,343.505 320.785,337.737 321.522,337.737 321.522,336.82 
					322.997,336.82 323.727,337.549 323.727,344.472 321.556,344.472 321.559,343.504 				"/>
				<g id="XMLID_2238_">
					<polygon id="XMLID_2239_" fill="#4098CD" points="322.839,343.254 321.856,343.254 321.856,338.535 322.38,338.535 
						322.38,342.729 322.839,342.729 					"/>
				</g>
			</g>
			<g id="XMLID_2233_">
				<polygon id="XMLID_2236_" fill="#FFFFFF" points="328.363,343.505 328.363,337.737 329.101,337.737 329.101,336.82 
					330.575,336.82 331.305,337.549 331.305,344.472 329.133,344.472 329.137,343.504 				"/>
				<g id="XMLID_2234_">
					<polygon id="XMLID_2235_" fill="#4098CD" points="330.417,343.254 329.434,343.254 329.434,338.535 329.958,338.535 
						329.958,342.729 330.417,342.729 					"/>
				</g>
			</g>
			<g id="XMLID_2041_">
				<rect id="XMLID_2232_" x="421.406" y="281.365" fill="#5B6B69" width="3.845" height="6.253"/>
				<g id="XMLID_2204_">
					<g>
						<g id="XMLID_360_">
							<rect x="425.251" y="281.887" fill="#FFFFFF" width="1.017" height="0.557"/>
						</g>
						<g id="XMLID_348_">
							<rect x="425.251" y="283.05" fill="#FFFFFF" width="1.017" height="0.557"/>
						</g>
						<g id="XMLID_347_">
							<rect x="425.251" y="285.377" fill="#FFFFFF" width="1.017" height="0.557"/>
						</g>
						<g id="XMLID_346_">
							<rect x="425.251" y="284.213" fill="#FFFFFF" width="1.017" height="0.558"/>
						</g>
						<g id="XMLID_345_">
							<rect x="425.251" y="286.54" fill="#FFFFFF" width="1.017" height="0.557"/>
						</g>
					</g>
				</g>
				<g id="XMLID_2095_">
					<g>
						<g id="XMLID_392_">
							<rect x="420.391" y="281.887" fill="#FFFFFF" width="1.016" height="0.557"/>
						</g>
						<g id="XMLID_391_">
							<rect x="420.391" y="283.05" fill="#FFFFFF" width="1.016" height="0.557"/>
						</g>
						<g id="XMLID_389_">
							<rect x="420.391" y="285.377" fill="#FFFFFF" width="1.016" height="0.557"/>
						</g>
						<g id="XMLID_388_">
							<rect x="420.391" y="284.213" fill="#FFFFFF" width="1.016" height="0.558"/>
						</g>
						<g id="XMLID_362_">
							<rect x="420.391" y="286.54" fill="#FFFFFF" width="1.016" height="0.557"/>
						</g>
					</g>
				</g>
				<g id="XMLID_2072_">
					<g>
						<g id="XMLID_285_">
							<rect x="424.214" y="280.338" fill="#FFFFFF" width="0.557" height="1.017"/>
						</g>
						<g id="XMLID_284_">
							<rect x="421.887" y="280.338" fill="#FFFFFF" width="0.558" height="1.017"/>
						</g>
						<g id="XMLID_279_">
							<rect x="423.051" y="280.338" fill="#FFFFFF" width="0.557" height="1.017"/>
						</g>
					</g>
				</g>
				<g id="XMLID_2042_">
					<g>
						<g id="XMLID_297_">
							<rect x="424.214" y="287.618" fill="#FFFFFF" width="0.557" height="1.016"/>
						</g>
						<g id="XMLID_296_">
							<rect x="421.887" y="287.618" fill="#FFFFFF" width="0.558" height="1.016"/>
						</g>
						<g id="XMLID_288_">
							<rect x="423.051" y="287.618" fill="#FFFFFF" width="0.557" height="1.016"/>
						</g>
					</g>
				</g>
			</g>
			<g id="XMLID_710_">
				<rect id="XMLID_2036_" x="421.406" y="271.466" fill="#5B6B69" width="3.845" height="6.254"/>
				<g id="XMLID_1384_">
					<g>
						<g id="XMLID_413_">
							<rect x="425.251" y="271.988" fill="#FFFFFF" width="1.017" height="0.557"/>
						</g>
						<g id="XMLID_412_">
							<rect x="425.251" y="273.151" fill="#FFFFFF" width="1.017" height="0.557"/>
						</g>
						<g id="XMLID_411_">
							<rect x="425.251" y="275.478" fill="#FFFFFF" width="1.017" height="0.558"/>
						</g>
						<g id="XMLID_409_">
							<rect x="425.251" y="274.314" fill="#FFFFFF" width="1.017" height="0.557"/>
						</g>
						<g id="XMLID_408_">
							<rect x="425.251" y="276.641" fill="#FFFFFF" width="1.017" height="0.558"/>
						</g>
					</g>
				</g>
				<g id="XMLID_1347_">
					<g>
						<g id="XMLID_406_">
							<rect x="420.391" y="271.988" fill="#FFFFFF" width="1.016" height="0.557"/>
						</g>
						<g id="XMLID_403_">
							<rect x="420.391" y="273.151" fill="#FFFFFF" width="1.016" height="0.557"/>
						</g>
						<g id="XMLID_402_">
							<rect x="420.391" y="275.478" fill="#FFFFFF" width="1.016" height="0.558"/>
						</g>
						<g id="XMLID_400_">
							<rect x="420.391" y="274.314" fill="#FFFFFF" width="1.016" height="0.557"/>
						</g>
						<g id="XMLID_399_">
							<rect x="420.391" y="276.641" fill="#FFFFFF" width="1.016" height="0.558"/>
						</g>
					</g>
				</g>
				<g id="XMLID_742_">
					<g>
						<g id="XMLID_305_">
							<rect x="424.214" y="270.439" fill="#FFFFFF" width="0.557" height="1.016"/>
						</g>
						<g id="XMLID_304_">
							<rect x="421.887" y="270.439" fill="#FFFFFF" width="0.558" height="1.016"/>
						</g>
						<g id="XMLID_300_">
							<rect x="423.051" y="270.439" fill="#FFFFFF" width="0.557" height="1.016"/>
						</g>
					</g>
				</g>
				<g id="XMLID_712_">
					<g>
						<g id="XMLID_307_">
							<rect x="424.214" y="277.72" fill="#FFFFFF" width="0.557" height="1.016"/>
						</g>
						<g id="XMLID_303_">
							<rect x="421.887" y="277.72" fill="#FFFFFF" width="0.558" height="1.016"/>
						</g>
						<g id="XMLID_302_">
							<rect x="423.051" y="277.72" fill="#FFFFFF" width="0.557" height="1.016"/>
						</g>
					</g>
				</g>
			</g>
			<g id="XMLID_566_">
				<rect id="XMLID_709_" x="404.872" y="267.338" fill="#5B6B69" width="6.253" height="3.845"/>
				<g id="XMLID_669_">
					<g>
						<g id="XMLID_398_">
							<rect x="405.394" y="266.321" fill="#FFFFFF" width="0.558" height="1.017"/>
						</g>
						<g id="XMLID_397_">
							<rect x="406.557" y="266.321" fill="#FFFFFF" width="0.558" height="1.017"/>
						</g>
						<g id="XMLID_396_">
							<rect x="408.884" y="266.321" fill="#FFFFFF" width="0.557" height="1.017"/>
						</g>
						<g id="XMLID_395_">
							<rect x="407.721" y="266.321" fill="#FFFFFF" width="0.557" height="1.017"/>
						</g>
						<g id="XMLID_394_">
							<rect x="410.047" y="266.321" fill="#FFFFFF" width="0.557" height="1.017"/>
						</g>
					</g>
				</g>
				<g id="XMLID_631_">
					<g>
						<g id="XMLID_359_">
							<rect x="405.394" y="271.183" fill="#FFFFFF" width="0.558" height="1.016"/>
						</g>
						<g id="XMLID_358_">
							<rect x="406.557" y="271.183" fill="#FFFFFF" width="0.558" height="1.016"/>
						</g>
						<g id="XMLID_357_">
							<rect x="408.884" y="271.183" fill="#FFFFFF" width="0.557" height="1.016"/>
						</g>
						<g id="XMLID_356_">
							<rect x="407.721" y="271.183" fill="#FFFFFF" width="0.557" height="1.016"/>
						</g>
						<g id="XMLID_355_">
							<rect x="410.047" y="271.183" fill="#FFFFFF" width="0.557" height="1.016"/>
						</g>
					</g>
				</g>
				<g id="XMLID_585_">
					<g>
						<g id="XMLID_299_">
							<rect x="403.846" y="267.818" fill="#FFFFFF" width="1.016" height="0.557"/>
						</g>
						<g id="XMLID_298_">
							<rect x="403.846" y="270.145" fill="#FFFFFF" width="1.016" height="0.558"/>
						</g>
						<g id="XMLID_295_">
							<rect x="403.846" y="268.981" fill="#FFFFFF" width="1.016" height="0.557"/>
						</g>
					</g>
				</g>
				<g id="XMLID_567_">
					<g>
						<g id="XMLID_293_">
							<rect x="411.125" y="267.818" fill="#FFFFFF" width="1.017" height="0.557"/>
						</g>
						<g id="XMLID_287_">
							<rect x="411.125" y="270.145" fill="#FFFFFF" width="1.017" height="0.558"/>
						</g>
						<g id="XMLID_283_">
							<rect x="411.125" y="268.981" fill="#FFFFFF" width="1.017" height="0.557"/>
						</g>
					</g>
				</g>
			</g>
			<g id="XMLID_430_">
				<rect id="XMLID_565_" x="395.386" y="267.338" fill="#5B6B69" width="6.253" height="3.845"/>
				<g id="XMLID_537_">
					<g>
						<g id="XMLID_354_">
							<rect x="395.907" y="266.321" fill="#FFFFFF" width="0.557" height="1.017"/>
						</g>
						<g id="XMLID_353_">
							<rect x="397.07" y="266.321" fill="#FFFFFF" width="0.558" height="1.017"/>
						</g>
						<g id="XMLID_352_">
							<rect x="399.397" y="266.321" fill="#FFFFFF" width="0.557" height="1.017"/>
						</g>
						<g id="XMLID_351_">
							<rect x="398.233" y="266.321" fill="#FFFFFF" width="0.558" height="1.017"/>
						</g>
						<g id="XMLID_350_">
							<rect x="400.561" y="266.321" fill="#FFFFFF" width="0.557" height="1.017"/>
						</g>
					</g>
				</g>
				<g id="XMLID_480_">
					<g>
						<g id="XMLID_349_">
							<rect x="395.907" y="271.183" fill="#FFFFFF" width="0.557" height="1.016"/>
						</g>
						<g id="XMLID_330_">
							<rect x="397.07" y="271.183" fill="#FFFFFF" width="0.558" height="1.016"/>
						</g>
						<g id="XMLID_325_">
							<rect x="399.397" y="271.183" fill="#FFFFFF" width="0.557" height="1.016"/>
						</g>
						<g id="XMLID_324_">
							<rect x="398.233" y="271.183" fill="#FFFFFF" width="0.558" height="1.016"/>
						</g>
						<g id="XMLID_323_">
							<rect x="400.561" y="271.183" fill="#FFFFFF" width="0.557" height="1.016"/>
						</g>
					</g>
				</g>
				<g id="XMLID_457_">
					<g>
						<g id="XMLID_281_">
							<rect x="394.359" y="267.818" fill="#FFFFFF" width="1.016" height="0.557"/>
						</g>
						<g id="XMLID_280_">
							<rect x="394.359" y="270.145" fill="#FFFFFF" width="1.016" height="0.558"/>
						</g>
						<g id="XMLID_278_">
							<rect x="394.359" y="268.981" fill="#FFFFFF" width="1.016" height="0.557"/>
						</g>
					</g>
				</g>
				<g id="XMLID_431_">
					<g>
						<g id="XMLID_271_">
							<rect x="401.639" y="267.818" fill="#FFFFFF" width="1.016" height="0.557"/>
						</g>
						<g id="XMLID_266_">
							<rect x="401.639" y="270.145" fill="#FFFFFF" width="1.016" height="0.558"/>
						</g>
						<g id="XMLID_265_">
							<rect x="401.639" y="268.981" fill="#FFFFFF" width="1.016" height="0.557"/>
						</g>
					</g>
				</g>
			</g>
			<g id="XMLID_385_">
				<rect id="XMLID_429_" x="342.73" y="248.334" fill="#CECECE" width="12.408" height="9.721"/>
				<rect id="XMLID_420_" x="342.67" y="248.334" fill="#5B6B69" width="1.66" height="1.66"/>
				<rect id="XMLID_418_" x="342.67" y="256.396" fill="#5B6B69" width="1.66" height="1.66"/>
				<rect id="XMLID_417_" x="353.479" y="248.334" fill="#5B6B69" width="1.66" height="1.66"/>
				<rect id="XMLID_415_" x="353.479" y="256.396" fill="#5B6B69" width="1.66" height="1.66"/>
				<rect id="XMLID_404_" x="344.391" y="249.995" fill="#5B6B69" width="9.088" height="6.401"/>
			</g>
		</g>
		<path id="XMLID_2792_" opacity="0.4" fill="#3D3E43" d="M346.924,238.402v6.709h-48.759c-2.004,0-3.631,1.627-3.631,3.631v71.938
			h-6.416v-78.647c0-2.004,1.627-3.631,3.632-3.631H346.924z"/>
	</g>
</g>
<g id="DESIGNED_BY_FREEPIK">
	<g id="XMLID_274_">
		<g id="XMLID_419_">
			<g id="XMLID_580_">
				<path id="XMLID_601_" fill="#F9FBFC" d="M250.308,540.873c-0.432,0.442-0.803,0.932-1.107,1.453l-0.465-0.241
					c-0.068-0.297-0.35-0.502-0.66-0.466c-0.33,0.038-0.566,0.339-0.529,0.67c0.04,0.331,0.34,0.567,0.67,0.528
					c0.066-0.007,0.128-0.025,0.184-0.053l0.452,0.234c-0.251,0.555-0.433,1.14-0.54,1.744l0.748,0.131
					c0.229-1.306,0.85-2.506,1.792-3.472L250.308,540.873z"/>
				<path id="XMLID_596_" fill="#F9FBFC" d="M255.795,538.571c-0.17,0-0.34,0.006-0.508,0.016l-0.074-0.625
					c0.188-0.15,0.297-0.389,0.266-0.645c-0.045-0.393-0.402-0.674-0.795-0.628s-0.674,0.401-0.627,0.796
					c0.029,0.254,0.189,0.461,0.404,0.563l0.072,0.625c-0.713,0.116-1.402,0.332-2.059,0.646l0.326,0.684
					c0.936-0.446,1.941-0.673,2.994-0.673c0.498,0,0.994,0.052,1.477,0.158l0.16-0.742
					C256.896,538.63,256.348,538.571,255.795,538.571z"/>
				<path id="XMLID_595_" fill="#F9FBFC" d="M262.398,541.118c0.332-0.041,0.566-0.341,0.525-0.672
					c-0.039-0.332-0.34-0.566-0.672-0.525c-0.309,0.038-0.535,0.303-0.529,0.607l-0.416,0.364c-0.418-0.431-0.891-0.813-1.408-1.141
					l-0.404,0.642c1.135,0.716,2.021,1.727,2.564,2.925l0.689-0.313c-0.25-0.554-0.566-1.07-0.941-1.544l0.402-0.352
					C262.27,541.123,262.334,541.127,262.398,541.118z"/>
				<path id="XMLID_594_" fill="#F9FBFC" d="M255.25,548.778c-0.387,0.023-0.775,0.036-1.158,0.036c-0.879,0-1.732-0.062-2.479-0.18
					c-0.391-0.062-0.845-0.154-1.27-0.292c1.047,1.861,3.069,3.125,5.389,3.125c2.855,0,5.262-1.916,5.949-4.503
					c-0.682,0.449-1.506,0.824-2.459,1.122C258.043,548.455,256.668,548.693,255.25,548.778z"/>
				<path id="XMLID_583_" fill="#F9FBFC" d="M255.795,540.087c-3.35,0-6.079,2.666-6.079,5.944c0,0.425,0.047,0.849,0.138,1.261
					c0.674,0.482,2.707,0.891,5.347,0.73c2.881-0.174,5.297-0.958,6.672-2.158c-0.004-0.195-0.02-0.391-0.045-0.582
					C261.449,542.321,258.855,540.087,255.795,540.087z M253.637,546.602c-1.02,0-1.85-0.829-1.85-1.85s0.83-1.85,1.85-1.85
					s1.85,0.829,1.85,1.85S254.656,546.602,253.637,546.602z M258.375,545.693c-0.75,0-1.361-0.609-1.361-1.359
					s0.611-1.361,1.361-1.361s1.359,0.611,1.359,1.361S259.125,545.693,258.375,545.693z"/>
			</g>
			<path id="XMLID_570_" fill="#F9FBFC" d="M271.801,541.955c-0.295-0.116-0.807-0.31-1.383-0.239
				c-0.551,0.069-0.844,0.342-0.844,1.007v0.867h2.229v1.717h-2.229v5.455h-1.932v-5.455h-1.34v-1.717h1.34v-0.889
				c0-1.68,0.895-2.782,2.568-2.782c0.643,0,1.156,0.12,1.59,0.308V541.955z"/>
			<path id="XMLID_536_" fill="#F9FBFC" d="M276.502,545.285c-0.176-0.029-0.357-0.046-0.525-0.046c-0.895,0-1.51,0.549-1.51,1.613
				v3.909h-1.932v-7.172h1.873v0.783c0.449-0.672,1.139-0.976,2.02-0.976c0.414,0,0.848,0.127,1.096,0.337L276.502,545.285z"/>
			<path id="XMLID_449_" fill="#F9FBFC" d="M284.17,547.164c0,0.223-0.016,0.488-0.037,0.651h-5.084
				c0.207,1.036,0.932,1.488,1.842,1.488c0.623,0,1.295-0.252,1.813-0.689l1.135,1.244c-0.814,0.748-1.852,1.089-3.057,1.089
				c-2.199,0-3.725-1.496-3.725-3.754s1.48-3.796,3.627-3.796C282.748,543.397,284.162,544.93,284.17,547.164z M279.057,546.498
				h3.174c-0.178-0.917-0.732-1.437-1.561-1.437C279.76,545.062,279.227,545.61,279.057,546.498z"/>
			<path id="XMLID_439_" fill="#F9FBFC" d="M291.824,547.164c0,0.223-0.016,0.488-0.037,0.651h-5.086
				c0.207,1.036,0.934,1.488,1.844,1.488c0.621,0,1.295-0.252,1.813-0.689l1.133,1.244c-0.814,0.748-1.85,1.089-3.057,1.089
				c-2.199,0-3.723-1.496-3.723-3.754s1.48-3.796,3.627-3.796C290.402,543.397,291.816,544.93,291.824,547.164z M286.709,546.498
				h3.176c-0.178-0.917-0.734-1.437-1.563-1.437C287.412,545.062,286.879,545.61,286.709,546.498z"/>
			<path id="XMLID_426_" fill="#F9FBFC" d="M300.17,547.172c0,2.154-1.496,3.775-3.473,3.775c-0.961,0-1.643-0.379-2.109-0.933
				v3.708h-1.924V543.59h1.887v0.791c0.467-0.584,1.154-0.983,2.139-0.983C298.674,543.397,300.17,545.019,300.17,547.172z
				 M294.492,547.172c0,1.133,0.748,1.976,1.844,1.976c1.139,0,1.85-0.88,1.85-1.976c0-1.095-0.711-1.976-1.85-1.976
				C295.24,545.196,294.492,546.039,294.492,547.172z"/>
			<path id="XMLID_423_" fill="#F9FBFC" d="M303.273,541.243c0,0.696-0.541,1.229-1.236,1.229c-0.697,0-1.229-0.533-1.229-1.229
				c0-0.695,0.531-1.244,1.229-1.244C302.732,539.999,303.273,540.548,303.273,541.243z M303.014,550.762h-1.932v-7.172h1.932
				V550.762z"/>
			<path id="XMLID_421_" fill="#F9FBFC" d="M306.236,546.144l2.703-2.554h2.367l-3.479,3.375l3.5,3.797h-2.375l-2.717-2.901v2.901
				h-1.932v-10.659h1.932V546.144z"/>
		</g>
		<g id="XMLID_275_">
			<path id="XMLID_386_" fill="#F9FBFC" d="M174.617,550.697v-1.055c-0.527,0.718-1.392,1.23-2.388,1.23
				c-1.846,0-3.148-1.407-3.148-3.706c0-2.257,1.289-3.721,3.148-3.721c0.953,0,1.816,0.468,2.388,1.244v-3.764h1.099v9.771H174.617
				z M174.617,548.777v-3.208c-0.396-0.614-1.245-1.143-2.124-1.143c-1.42,0-2.27,1.172-2.27,2.74c0,1.567,0.85,2.725,2.27,2.725
				C173.372,549.892,174.221,549.394,174.617,548.777z"/>
			<path id="XMLID_379_" fill="#F9FBFC" d="M177.136,547.152c0-2.051,1.465-3.706,3.486-3.706c2.139,0,3.397,1.67,3.397,3.793v0.279
				h-5.727c0.088,1.333,1.025,2.446,2.549,2.446c0.806,0,1.626-0.322,2.182-0.894l0.527,0.718c-0.703,0.703-1.654,1.084-2.812,1.084
				C178.645,550.873,177.136,549.364,177.136,547.152z M180.608,544.354c-1.509,0-2.256,1.273-2.314,2.357h4.644
				C182.922,545.657,182.219,544.354,180.608,544.354z"/>
			<path id="XMLID_344_" fill="#F9FBFC" d="M184.811,549.76l0.572-0.791c0.469,0.542,1.361,1.011,2.328,1.011
				c1.084,0,1.67-0.514,1.67-1.216c0-1.714-4.379-0.659-4.379-3.282c0-1.098,0.951-2.035,2.636-2.035
				c1.202,0,2.052,0.453,2.622,1.025l-0.513,0.762c-0.425-0.513-1.2-0.894-2.109-0.894c-0.966,0-1.567,0.483-1.567,1.112
				c0,1.554,4.38,0.528,4.38,3.282c0,1.187-0.952,2.139-2.782,2.139C186.51,550.873,185.53,550.521,184.811,549.76z"/>
			<path id="XMLID_336_" fill="#F9FBFC" d="M191.682,541.878c0-0.409,0.336-0.747,0.731-0.747c0.41,0,0.747,0.338,0.747,0.747
				c0,0.411-0.337,0.732-0.747,0.732C192.018,542.61,191.682,542.289,191.682,541.878z M191.872,550.697v-7.075h1.1v7.075H191.872z"
				/>
			<path id="XMLID_333_" fill="#F9FBFC" d="M194.787,552.514l0.556-0.82c0.586,0.703,1.289,0.967,2.301,0.967
				c1.172,0,2.27-0.571,2.27-2.125v-1.011c-0.512,0.719-1.377,1.261-2.373,1.261c-1.846,0-3.148-1.378-3.148-3.662
				c0-2.271,1.289-3.677,3.148-3.677c0.953,0,1.803,0.468,2.373,1.244v-1.068h1.1v6.87c0,2.343-1.641,3.076-3.369,3.076
				C196.442,553.568,195.622,553.333,194.787,552.514z M199.913,548.66v-3.091c-0.381-0.614-1.23-1.143-2.109-1.143
				c-1.42,0-2.27,1.129-2.27,2.696c0,1.553,0.85,2.695,2.27,2.695C198.682,549.818,199.532,549.276,199.913,548.66z"/>
			<path id="XMLID_320_" fill="#F9FBFC" d="M207.618,550.697v-4.629c0-1.245-0.63-1.642-1.582-1.642c-0.864,0-1.685,0.528-2.094,1.1
				v5.171h-1.1v-7.075h1.1v1.025c0.497-0.587,1.464-1.201,2.519-1.201c1.479,0,2.256,0.747,2.256,2.285v4.966H207.618z"/>
			<path id="XMLID_315_" fill="#F9FBFC" d="M210.137,547.152c0-2.051,1.465-3.706,3.486-3.706c2.139,0,3.398,1.67,3.398,3.793v0.279
				h-5.728c0.088,1.333,1.024,2.446,2.548,2.446c0.807,0,1.627-0.322,2.184-0.894l0.527,0.718c-0.703,0.703-1.656,1.084-2.813,1.084
				C211.646,550.873,210.137,549.364,210.137,547.152z M213.608,544.354c-1.508,0-2.256,1.273-2.313,2.357h4.644
				C215.922,545.657,215.219,544.354,213.608,544.354z"/>
			<path id="XMLID_311_" fill="#F9FBFC" d="M223.555,550.697v-1.055c-0.527,0.718-1.393,1.23-2.389,1.23
				c-1.846,0-3.148-1.407-3.148-3.706c0-2.257,1.288-3.721,3.148-3.721c0.952,0,1.816,0.468,2.389,1.244v-3.764h1.098v9.771H223.555
				z M223.555,548.777v-3.208c-0.396-0.614-1.246-1.143-2.125-1.143c-1.42,0-2.27,1.172-2.27,2.74c0,1.567,0.85,2.725,2.27,2.725
				C222.309,549.892,223.159,549.394,223.555,548.777z"/>
			<path id="XMLID_290_" fill="#F9FBFC" d="M229.897,550.697v-9.771h1.098v3.764c0.572-0.776,1.422-1.244,2.389-1.244
				c1.845,0,3.148,1.464,3.148,3.721c0,2.299-1.304,3.706-3.148,3.706c-0.996,0-1.861-0.513-2.389-1.23v1.055H229.897z
				 M233.104,549.892c1.436,0,2.285-1.157,2.285-2.725c0-1.568-0.85-2.74-2.285-2.74c-0.863,0-1.729,0.528-2.109,1.143v3.208
				C231.375,549.394,232.241,549.892,233.104,549.892z"/>
			<path id="XMLID_276_" fill="#F9FBFC" d="M237.733,552.47c0.161,0.073,0.426,0.117,0.601,0.117c0.483,0,0.806-0.161,1.055-0.747
				l0.469-1.069l-2.959-7.148h1.187l2.358,5.801l2.345-5.801h1.2l-3.545,8.51c-0.425,1.024-1.143,1.422-2.08,1.437
				c-0.234,0-0.601-0.044-0.806-0.104L237.733,552.47z"/>
		</g>
	</g>
</g>
</svg>
